/* XPM */
static char *b00f84ba444f4e23a49efdce5ca8ac59[] = {
/* columns rows colors chars-per-pixel */
"64 64 256 2 ",
"   c #513705",
".  c #543A07",
"X  c #553B08",
"o  c #593F07",
"O  c #5B4B02",
"+  c #5C4309",
"@  c #584703",
"#  c #5B5005",
"$  c #644B0D",
"%  c #634C09",
"&  c #69550C",
"*  c #6D5712",
"=  c #755C16",
"-  c #725B0F",
";  c #7C631B",
":  c #7D6616",
">  c #7E620E",
",  c #7D6339",
"<  c #7E6920",
"1  c #82691D",
"2  c #80671E",
"3  c #8D711D",
"4  c #856D22",
"5  c #806620",
"6  c #966A27",
"7  c #8C7326",
"8  c #8E752B",
"9  c #937A2C",
"0  c #987727",
"q  c #8D6B3D",
"w  c #866A37",
"e  c #966E3A",
"r  c #947C32",
"t  c #94743B",
"y  c #987939",
"u  c #8D7138",
"i  c #A37B2B",
"p  c #A57A3A",
"a  c #876C45",
"s  c #946E44",
"d  c #8B7247",
"f  c #937243",
"g  c #947944",
"h  c #9B7C42",
"j  c #99794A",
"k  c #9C7C54",
"l  c #8C7855",
"z  c #A27C44",
"x  c #AB7D41",
"c  c #A47C4C",
"v  c #AA7949",
"b  c #AB7E52",
"n  c #A27E53",
"m  c #B37D4B",
"M  c #9B8234",
"N  c #9C843C",
"B  c #A7842B",
"V  c #A48B3C",
"C  c #A48838",
"Z  c #B28838",
"A  c #AC923C",
"S  c #BA9339",
"D  c #B38827",
"F  c #C69A3B",
"G  c #CFA03F",
"H  c #9C834B",
"J  c #9C8347",
"K  c #9B835B",
"L  c #958058",
"P  c #8D8D5F",
"I  c #AB8443",
"U  c #A58D42",
"Y  c #A3834B",
"T  c #AB854A",
"R  c #A48A4C",
"E  c #AD8A4B",
"W  c #A68344",
"Q  c #B38C4E",
"!  c #B78747",
"~  c #AD9442",
"^  c #AC944A",
"/  c #A3904F",
"(  c #B39A44",
")  c #B89F47",
"_  c #BC924C",
"`  c #B39B4C",
"'  c #B49948",
"]  c #AC8354",
"[  c #A48C52",
"{  c #AB8C52",
"}  c #A68657",
"|  c #B28555",
" . c #B48C56",
".. c #BC8B5C",
"X. c #B98857",
"o. c #AA9556",
"O. c #BB9554",
"+. c #B39D53",
"@. c #B4945C",
"#. c #BA955B",
"$. c #B49C5B",
"%. c #B79756",
"&. c #BBA24C",
"*. c #BCA246",
"=. c #B7A056",
"-. c #BBA354",
";. c #BBA45B",
":. c #BAA45B",
">. c #969663",
",. c #9C8963",
"<. c #A48D65",
"1. c #AB9766",
"2. c #B49A64",
"3. c #BC9C64",
"4. c #B49B6A",
"5. c #BA9764",
"6. c #B39269",
"7. c #BBA464",
"8. c #BEA962",
"9. c #B9A36B",
"0. c #BDAA6C",
"q. c #B6A368",
"w. c #BEAB74",
"e. c #B8A877",
"r. c #B2A76E",
"t. c #C48D49",
"y. c #CC934C",
"u. c #C79644",
"i. c #D1984A",
"p. c #C68C59",
"a. c #CC9452",
"s. c #C79857",
"d. c #D39C54",
"f. c #D99E5B",
"g. c #D39759",
"h. c #C4A94D",
"j. c #C6A64A",
"k. c #D8A644",
"l. c #CCB04F",
"z. c #C5AB53",
"x. c #C9AF54",
"c. c #C4AC5C",
"v. c #C8AF5A",
"b. c #C1A554",
"n. c #DBA35B",
"m. c #D4A45A",
"M. c #CBB156",
"N. c #CDB35B",
"B. c #D0B65D",
"V. c #D2B85E",
"C. c #ECB64D",
"Z. c #E2AA5E",
"A. c #EBB74E",
"S. c #C78D63",
"D. c #CC9B63",
"F. c #C79866",
"G. c #D69966",
"H. c #C3AC63",
"J. c #C2AD6A",
"K. c #C8A567",
"L. c #DDA363",
"P. c #DCA26E",
"I. c #D9A866",
"U. c #CDB563",
"Y. c #CBB46B",
"T. c #CEBA6C",
"R. c #C8B269",
"E. c #D0B662",
"W. c #D3BA64",
"Q. c #D5BC6A",
"!. c #D8BF6C",
"~. c #D7B56B",
"^. c #C6AB75",
"/. c #DCA673",
"(. c #CBB573",
"). c #CFB973",
"_. c #C5B37B",
"`. c #CBB67B",
"'. c #CEBA7B",
"]. c #C4B276",
"[. c #D3BD74",
"{. c #D2BC7C",
"}. c #DAB777",
"|. c #E1A963",
" X c #EAAD66",
".X c #E5AC6B",
"XX c #EBAD6B",
"oX c #E3A768",
"OX c #E9B16B",
"+X c #E6B26C",
"@X c #EAAD73",
"#X c #EDAE7B",
"$X c #E3A773",
"%X c #EBB273",
"&X c #EDB27B",
"*X c #E8B778",
"=X c #F1B57B",
"-X c #F5B97E",
";X c #F2B476",
":X c #F9C256",
">X c #DAC16E",
",X c #DCC374",
"<X c #D6C17B",
"1X c #DBC47A",
"2X c #E2C97C",
"3X c #E0C678",
"4X c #C9B883",
"5X c #D3BD82",
"6X c #F5BB82",
"7X c #F7B984",
"8X c #EBB983",
"9X c #D5C184",
"0X c #DAC582",
"qX c #D9C68A",
"wX c #DDC98C",
"eX c #DDC786",
"rX c #DDCC92",
"tX c #DFD099",
"yX c #E4CC84",
"uX c #E3CD8B",
"iX c #E7CC84",
"pX c #FAC38C",
"aX c #F3C489",
"sX c #E9D085",
"dX c #EBD38C",
"fX c #E8D38C",
"gX c #E6CD92",
"hX c #F9CB94",
"jX c #E5D193",
"kX c #EDD692",
"lX c #EFD894",
"zX c #E4D39B",
"xX c #EDD99A",
"cX c #EAD79B",
"vX c #F1DA95",
"bX c #F4DD9C",
"nX c #F7E09E",
"mX c #F9E19E",
"MX c #E4D6A3",
"NX c #ECDAA2",
"BX c #E9DAAB",
"VX c #F2DFA5",
"CX c #EBDDB2",
"ZX c #FAE4A3",
"AX c #F9E4A9",
"SX c #F4E3B2",
"DX c #F2E4BB",
"FX c #F8E8B9",
"GX c #EDE1B9",
"HX c #EEE5C7",
"JX c #F7EBC6",
"KX c #F5EDD5",
"LX c #FCF2D8",
"PX c #FDF1CD",
"IX c #FAF4E3",
"UX c None",
/* pixels */
"UXUXUXUXUXUXUXUXUXUXUXUXUXUXUXUXUXUXUXUXUXUXUXUXUXUXUXUXUXUXUXUXUXUXUXUXUXUXUXUXUXUXUXUXUXUXUXUXUXUXUXUXUXUXUXUXUXUXUXUXUXUXUXUX",
"UXUXUXUXUXUXUXUXUXUXUXUXUXUXUXUXUXUXUXUXUXUXUXUXUXUXUXUXIXIXLXKXKXHXHXKXKXUXUXUXUXUXUXUXUXUXUXUXUXUXUXUXUXUXUXUXUXUXUXUXUXUXUXUX",
"UXUXUXUXUXUXUXUXUXUXUXUXUXUXUXUXUXUXUXUXUXUXUXUXHXCXMXNXAXSXAXlXyXT.E.[.fXBXPXLXLXUXUXUXUXUXUXUXUXUXUXUXUXUXUXUXUXUXUXUXUXUXUXUX",
"UXUXUXUXUXUXUXUXUXUXUXUXUXUXUXUXUXUXUXUXUXLXJXNX<Xx.x.c.Y.uX0.7.>X:.+.l.:.(.sXjXcXcXMXHXUXUXUXUXUXUXUXUXUXUXUXUXUXUXUXUXUXUXUXUX",
"UXUXUXUXUXUXUXUXUXUXUXUXUXUXUXUXUXUXUXGXDXAXdXY.=.z.B.-.+.).H.H.[.J.R.-.'.uXeX0.(.-.z.T.MXJXUXUXUXUXUXUXUXUXUXUXUXUXUXUXUXUXUXUX",
"UXUXUXUXUXUXUXUXUXUXUXUXUXUXUXUXUXLXzXQ.kXeX'.1X7.z.B.-.R.dXY.).R.Y.`.).).1XuXyXyX-.^ ( E.yXJXLXUXUXUXUXUXUXUXUXUXUXUXUXUXUXUXUX",
"UXUXUXUXUXUXUXUXUXUXUXUXUXUXUXUXJXVXv.b.`.uX_.Y.J.&.B.[.dXZXkXfX1XW.W.Q.5XuXyXjX).N.-.-.=.2.yXAXPXUXUXUXUXUXUXUXUXUXUXUXUXUXUXUX",
"UXUXUXUXUXUXUXUXUXUXUXUXUXUXHXSXZXyXe.Y.<XrXqX).<Xc.&.&.+.` ^ V M 9 7 7 C b.{.bXdXR.=.=.=.[.dXbXwXFXHXUXUXUXUXUXUXUXUXUXUXUXUXUX",
"UXUXUXUXUXUXUXUXUXUXUXUXUXCXjXsX`.0XsXJ.1XjXgX1X~ 8 r ^ b.U.U.Y.v.z.&.) A V C V =.H.E.U.8.[.vX5Xe.<XbXGXUXUXUXUXUXUXUXUXUXUXUXUX",
"UXUXUXUXUXUXUXUXUXUXUXUXtX1X2XyX`.ZXU.).jXlX=.M ^ 0XbXmXbXdX2X>XW.B.M.M.B.V.W.B.&.M 7 A Q.2XeX].rXwX0.0XMXUXUXUXUXUXUXUXUXUXUXUX",
"UXUXUXUXUXUXUXUXUXUXUXrXQ.-.$.0X{._.Y.N.=.V c.kXAXZXbXvXkXsX[.Y.v.-.z.x.x.N.V.Q.,X2XT.N 8 Y.kXbXvX4X4XJ.>XzXUXUXUXUXUXUXUXUXUXUX",
"UXUXUXUXUXUXUXUXUXUXwXE.l.U.8.q.5XVXQ.7 U iXbXbXbXnXnXuX`.q.o.[ [ H J R +.c.B.Q.>X3XsXdXY.M :.ZXgXqXwXyXc.H.rXUXUXUXUXUXUXUXUXUX",
"UXUXUXUXUXUXUXUXUXwXT.) / v.U.0XnX1X9 ;.dXdXkXvXnXbX5X2.o.} [ R J J y J J J o.H.Y.>X2XsXvXlX` ` bXvX0XJ.w.H.[.wXUXUXUXUXUXUXUXUX",
"UXUXUXUXUXUXUXUXqX[.l.` ^ +.R.dX[.M E.sXyXsXkXbXwXw.$.3.3.%.O.O.O._ _ ~ ! V Y o.o.$.9.'.dXlXZXH.U jXuXqX'.Q.) Q.wXUXUXUXUXUXUXUX",
"UXUXUXUXUXUXUXUX<Xz.^ -.:.:.2XR.M W.3X,XyXdXvX`.1.K./.}.~./.|. XZ.Z.Z.Z.n.m.s.^ R R { o.'.bXxXAX).U sXeX<X$.q.:.<XUXUXUXUXUXUXUX",
"UXUXUXUXUXUXUX<XB.&.o.&.N.T.v.r N.Q.>X3X2XdX_.9.}.aXaX*X@X+XOXXX X X XOXOXOXI.u.^ { { Y [ 9XnXvXAXY.U 2X[.(.V.E.c.<XUXUXUXUXUXUX",
"UXUXUXUXUXUXUXT.x.M.8.+.z.N.M &.>XV.>X1XsX].q.eXhXhXhX*X*X*XXXXX X X|.OX+X+X+Xm.s.#.#.$.[ 4.bXbXbXAXc.^ 3XT.z.b./ Y.UXUXUXUXUXUX",
"UXUXUXUXUXUX[.N.x.l.M.N.M.M A V.B.W.>X2X).2.=XpXhXhXpXaX-X=X;XXX X XOXOX+X*X*X+XK.%.%.3.3.2.uXbXbXbXZXU -.Q.-.q.Y.v.[.UXUXUXUXUX",
"UXUXUXUXUXUXB.z.x.x.x.M.~ M M.N.B.W.>X1X1./.-XpXhXpXpXpXaX;X;XXX X X+X%X*X3XOX|.s.+.%.@.3.#.r.bXmXbXZXuXr N.Y.v.` +.E.UXUXUXUXUX",
"UXUXUXUXUXY.N.l.x.x.x.x.7 &.M.M.B.T.>XT.o.+X-XpXpXpXpXpX6X-X@X X XXX+XOXOX|.Z.|.m.#.#.5.@.9.4.9XZXbXvXZX:.A M.=.J.+.=.W.UXUXUXUX",
"UXUXUXUXUXN.x.x.x.x.M.A M B.x.N.V.W.,XJ.K.+X;X-X7X7X7X-X-X;X@XoX|.|.Z.n.n.n.n.Z.I.E r y y y H ].nXnXbXbXkXy x.v.&.-.c.N.UXUXUXUX",
"UXUXUXUXN.N.x.x.x.M.M.M &.M.M.M.B.W.>X:.D..X@X%X=X=X-X=X=X@XoXL.f.f.d.d.m.d.d.n.m.r % # # O = 9.cXmXbXxXZX:.A B.7.8.&.z.N.UXUXUX",
"UXUXUXUXx.N.x.x.x.M.) M B.l.x.M.B.W.>X:.m..X@X&X=X#X#X#X@XoXL.f.f.f.d.d.d.i.d.m.d._ E - @ 8 9.1.wXZXmXbXbXeXM M.:.o.o.=.x.UXUXUX",
"UXUXUXUXv.x.x.x.l.M.V ( B.x.v.M.B.W.[.%.P.OX=X-X7X7X7X#X@X@XoXoXL.f.d.i.u.y.a.d.s._ E * # y 1.,.5XAXnXbXvXbXU *.N.U.N.N.v.UXUXUX",
"UXUXUXUXx.x.x.x.x.x.C z.M.x.M.M.N.W.T.%.I.%X-X6X-X6X6X7X6X=XXX.X|.n.i.i.y.y.u.u.Z I p - O t } g w.*XlXbXvXmXH.A B.z.x.x.x.UXUXUX",
"UXUXUX) x.x.x.x.N.h.V N.M.x.v.M.U.W.T.5.+X@X%X@X=X&X&X6X=X@XoXoXoXn.n.i.i.t.k.A.C.C.C.k.F G j.F S D E.ZXvXbX{.A M.v.x.M.M.( UXUX",
"UXUXUX) M.x.x.x.x.*.~ V.x.x.v.M.B.W.Q.R {  .5.F.P.$X$X/.G.D.D.s.s.s.m.m.d.u.:X:XC.u.F C.A.k.S S F D A bXvXvXsXV x.x.x.x.x.) UXUX",
"UXUXUX( M.x.x.x.N.) ) V.x.v.l.M.B.W.Q.H Y c j | ..G.D.p.X.v t s y e e ! a.u.:Xk.p u w k.A.M d k +.B 0 yXnXlXkX` h.M.x.x.M.( UXUX",
"UXUXUX&.x.x.x.x.M.( &.B.v.x.x.M.B.U.8.[ | ] c  .5.S.S.S.b n s q s z p e C C.A.a.s.g t G k.M a k NXb.> O.ZXkXlX` h.M.v.l.M.&.UXUX",
"UXUXUX( M.x.x.x.x.) z.V.v.x.v.M.N.$.P { z d s K <.F.7XF.v a , , w w y z z F 0 W #.f u F F I G.@XkX~.1 ^ ZXkXvXc.&.x.x.v.M.( UXUX",
"UXUXUX~ M.x.x.x.M.) z.B.x.l.x.M.N.>.>.q.s.X.] ] X./.8X....c j v v x x e p ! = - d.h u S S Z S.S.t.G ~.bXvXlXvXc.h.M.x.x.M.~ UXUX",
"UXUXUX( M.x.M.x.M.&.v.N.x.v.x.M.N.>.>.K.p.m m ../.7X8XG.P.G.m v p p x ! ! a.i & 0 z u B B i p.! i.k.sXZXbXlXvXc.h.M.x.l.M.( UXUX",
"UXUXUXV M.x.x.x.M.z.z.B.M.x.z.M.V.8.1.I.oX$X$X8X#X7X7XG.P.$XP.G.p.t.t.a.i.g.t.> : 3 0 B 0 i F k.C.V.bXmXvXxXlXv.x.x.x.x.M.V UXUX",
"UXUXUXM M.x.x.x.x.h.:.B.M.z.M.M.M.W.8.oX#X$X$XG.7X7X7XG.P.G.$XXXoXL.g.y.a.i.i.i 0 i i 0 3 0 i.k.k.+XnXmXbXvXkXc.x.x.x.x.M.M UXUX",
"UXUXUX9 M.M.x.x.x.M.z.B.M.M.M.M.N.B.K.L.L.g.G.#X7X#X7X7X#Xg.S.G.G.f.f.g.y.i.y.t.!  .Q 3 > 6 p.G.P.bXbXbXbXvXsXv.x.x.x.x.x.9 UXUX",
"UXUXUX< h.M.x.M.x.M.z.B.M.z.z.M.N.E.I.G.g.m X.$X$XG.G.G.G.p.m t.g.y.y.t.t.y.y.m E { _ : - 0 G.G.kXnXbXbXvXbXyXx.x.x.x.x.z.1 UXUX",
"UXUXUX* ) M.M.M.+.v.N.M.M.M.z.M.N.V.:.O.m s b b X.S.n a j ..X.v m t.t.! t.t.! Z { { t.: $ 6 G.}.bXbXnXbXvXbX1Xv.z.M.M.M.) * UXUX",
"UXUXUX$ A M.` / w.c.N.N.N.z.x.M.N.W.H.| q a b b s s a l ] ..p.b s x p x x x m t. .^ t.- # 6 /.vXbXmXnXbXbXxX!.:.H.M.&.M.V + UXUX",
"UXUXUX  9 N._.[.).:.N.U.M.M.x.M.N.V.H.T s a n b l a s k b b b z e e x p p z T O.Q Q t.& @ r mXnXbXmXnXbXbXkX[.'.:.j.$.N.8   UXUX",
"UXUXUXUX= l.:./ r.].-.U.M.M.x.M.N.E.8...s , k b b b b b b b j q w e ! I I p W Q E ; & O @ % 4 H.ZXbXnXbXbXsXE.H.e.r.[.h.= UXUXUX",
"UXUXUXUX+ A R.].`._.N.V.U.M.M.x.M.V.J.@.] s X.S.S.S.S...b b m j w v p.! W C T  .R 1 ; ; 1 1 - +.ZXbXnXbXbXuX7.r.4Xw.N.A + UXUXUX",
"UXUXUXUX. 4 V.`.w.r.o.z.[.N.z.M.N.V.J.@.W Y K.s.| }  .X.S.S.s.s.p ! _ E I T E o.{ Q.3X2XsXkXvXnXbXnXVXbXxX<X^.4X].(.x.4   UXUXUX",
"UXUXUXUX  $ ( B.w.<X9XH.U.[.x.M.N.B.R.2.] @.D.X.s a a k ..D.D.p.y z T T T Y R o.v.>X,X2XyXdXvXvXbXnXnXnXbXq.q.1X4X[.( $   UXUXUX",
"UXUXUXUXUX. 7 B.9Xh.V.W.z.<XW.z.N.B.Y.r.4.r.F.F...n n ..F./.D. .t u E W J H Y $.W.Q.,X2XyXsXvXvXbXbXnXSXuX'.4X[ c.V.7 X UXUXUXUX",
"UXUXUXUXUX  $ ( <XN.h.x.x.N.qXU.M.B.>Xw.e._._./.^./.F.K.K.D.F.o.f g [ g H [ { N.W.Q.,X3XiXdXkXvXbXbXFXVXsXyX!.qX).A $   UXUXUXUX",
"UXUXUXUXUXUXX ; h.x.v.x.x.z.V.jXB.N.V.T.e.e.4X^.F.9.9.4.F.3.5.@.k g g g g H -.B.W.Q.,X3XyXdXkXbXbXAXFXvXsX,XE.M.x.;   UXUXUXUXUX",
"UXUXUXUXUXUX. + M M.x.x.x.M.h.<XMXW.B.>X'.e.^.9.4.4.1.4.4.1.2.1.g d d H / z.N.B.W.Q.,X2X2XdXdXvXSXFXbXvXfX1XW.V.M o . UXUXUXUXUX",
"UXUXUXUXUXUXUX  & ( M.x.x.x.v.B.uXGX1XW.3X4X4.<.1.<.,.<.<.<.,.L d a g ` N.x.x.B.V.Q.>X3XiXdXkXVXSXbXbXvXsX1X!.) %   UXUXUXUXUXUX",
"UXUXUXUXUXUXUX. . = &.M.l.x.x.W.!.jXJXjX,X2X'.1.,.L l ,.l l a a w ^ N.N.z.x.N.N.V.Q.>X2X2XfXBXcXsXbXnXvXsXyXc.= . X UXUXUXUXUXUX",
"UXUXUXUXUXUXUXUXX X 1 z.x.x.x.V.,XsXvXJXCXsXiXeX^.<.K K k L 1.q.Y.Q.V.x.l.x.v.B.W.Q.>X,XcXMX1XQ.sXvXnXxXfX,X7 . . UXUXUXUXUXUXUX",
"UXUXUXUXUXUXUXUXUXX o 4 z.M.x.B.>XsXvXbXNXMXBXbXvXvXgXgXuXsXdXsX2XQ.V.N.x.x.v.l.M.Q.gXGXMXN.M.>XsXvXbXbXyXr + X UXUXUXUXUXUXUXUX",
"UXUXUXUXUXUXUXUXUXUX. o 4 h.N.v.!.yXlXnXsXV.uXJXJXSXAXZXnXvXdX2X>XW.M.l.h.z.N.[.jXJXPXxXW.x.B.>XsXvXZXjXM +   UXUXUXUXUXUXUXUXUX",
"UXUXUXUXUXUXUXUXUXUX. . o ; ) V.!.iXlXnXdXN.V.vXAXDXDXDXDXSXNXfXuX<X1X0XwXzXBXCXBXnXbXsXQ.M.M.Q.iXbXyXr +   X UXUXUXUXUXUXUXUXUX",
"UXUXUXUXUXUXUXUXUXUXUXX . X - ~ !.sXdXnXkXN.E.kXbXsX3X[.9XjXCXJXPXPXJXDXcX<XU.W.2XvXnXdXQ.M.M.>XiXR.4 X . X UXUXUXUXUXUXUXUXUXUX",
"UXUXUXUXUXUXUXUXUXUXUXUX. . . $ r >XvXnXkXE.V.fXmXkX3XW.( ) W.(.kX9X[.J.^ b.l.T.yXvXnXdXQ.M.V.v.C * . . X UXUXUXUXUXUXUXUXUXUXUX",
"UXUXUXUXUXUXUXUXUXUXUXUXUXUX. . o 1 c.vXbXQ.N.sXbXkX3XE.w.J.o.2.9.`./ :.J.=.N.W.3XlXbXvX,Xz.C = o   . UXUXUXUXUXUXUXUXUXUXUXUXUX",
"UXUXUXUXUXUXUXUXUXUXUXUXUXUXUXX . . $ r c.v.V.dXnXvX2XW.c.W.[.7.>XwXE.H.U.c.x.W.yXvXZXeX^ 2 + X . X UXUXUXUXUXUXUXUXUXUXUXUXUXUX",
"UXUXUXUXUXUXUXUXUXUXUXUXUXUXUXUXX . . X $ = 8 R.lXvX2XQ.w.J.J.0.fX8.yX<Xr.Q.N.W.!.T.` 4 +   X X X UXUXUXUXUXUXUXUXUXUXUXUXUXUXUX",
"UXUXUXUXUXUXUXUXUXUXUXUXUXUXUXUXUXUXX . . . X * 7 V ` ` H.c.R.eXlXjXdX<XY.A M 8 ; * + .   X X UXUXUXUXUXUXUXUXUXUXUXUXUXUXUXUXUX",
"UXUXUXUXUXUXUXUXUXUXUXUXUXUXUXUXUXUXUXUX. . . .   X + % % * 1 8 r M 8 ; & % + X     . X o UXUXUXUXUXUXUXUXUXUXUXUXUXUXUXUXUXUXUX",
"UXUXUXUXUXUXUXUXUXUXUXUXUXUXUXUXUXUXUXUXUXUXX X . . .   . . .   X         . . . X X X UXUXUXUXUXUXUXUXUXUXUXUXUXUXUXUXUXUXUXUXUX",
"UXUXUXUXUXUXUXUXUXUXUXUXUXUXUXUXUXUXUXUXUXUXUXUXUXUXX . X . . . . . . o o . . UXUXUXUXUXUXUXUXUXUXUXUXUXUXUXUXUXUXUXUXUXUXUXUXUX",
"UXUXUXUXUXUXUXUXUXUXUXUXUXUXUXUXUXUXUXUXUXUXUXUXUXUXUXUXUXUXUXUXUXUXUXUXUXUXUXUXUXUXUXUXUXUXUXUXUXUXUXUXUXUXUXUXUXUXUXUXUXUXUXUX",
"UXUXUXUXUXUXUXUXUXUXUXUXUXUXUXUXUXUXUXUXUXUXUXUXUXUXUXUXUXUXUXUXUXUXUXUXUXUXUXUXUXUXUXUXUXUXUXUXUXUXUXUXUXUXUXUXUXUXUXUXUXUXUXUX"
};
