/* XPM */
static char *a7ffe2a22dbd4c67f307d059ce62faea[] = {
/* columns rows colors chars-per-pixel */
"16 16 179 2 ",
"   c #543A05",
".  c #583E08",
"X  c #624911",
"o  c #674E13",
"O  c #6E5416",
"+  c #765C1B",
"@  c #7A601D",
"#  c #896F2F",
"$  c #8F702D",
"%  c #997A2F",
"&  c #8B7233",
"*  c #8B7739",
"=  c #9F7D36",
"-  c #9E773F",
";  c #967D3B",
":  c #977E3C",
">  c #947A46",
",  c #9F774A",
"<  c #A47F44",
"1  c #AB7C40",
"2  c #A77B4E",
"3  c #A67C4C",
"4  c #A67D54",
"5  c #9B833F",
"6  c #9E813F",
"7  c #A28035",
"8  c #A1883E",
"9  c #A68D3D",
"0  c #AE8B3D",
"q  c #B48439",
"w  c #B1863C",
"e  c #A7884C",
"r  c #BA8D4D",
"t  c #A7904A",
"y  c #A9904A",
"u  c #A9934E",
"i  c #BD9047",
"p  c #B09949",
"a  c #B89E48",
"s  c #B99F48",
"d  c #AB8354",
"f  c #AA8B5B",
"g  c #B28E50",
"h  c #B58A5B",
"j  c #B28E5D",
"k  c #BD8E59",
"l  c #B39B50",
"z  c #B99F51",
"x  c #B69F5C",
"c  c #BAA04A",
"v  c #BFA54B",
"b  c #BBA353",
"n  c #BCA453",
"m  c #BEA657",
"M  c #B4A15D",
"N  c #BDA559",
"B  c #BFA85B",
"V  c #AF9062",
"C  c #BDA464",
"Z  c #C08B45",
"A  c #C69942",
"S  c #C1914E",
"D  c #C09B56",
"F  c #C89B56",
"G  c #D39656",
"H  c #C0A64E",
"J  c #C3A94E",
"K  c #C3A94F",
"L  c #C6AB4E",
"P  c #D7A24D",
"I  c #C4AA51",
"U  c #C5AB51",
"Y  c #C6AC51",
"T  c #C6AC52",
"R  c #C0A955",
"E  c #C4AB54",
"W  c #C6AC54",
"Q  c #C8AE53",
"!  c #C3A459",
"~  c #C1A959",
"^  c #C5AB58",
"/  c #C1A95C",
"(  c #C3AB5C",
")  c #C3AD5E",
"_  c #C7AE5E",
"`  c #C8AD5E",
"'  c #DAA059",
"]  c #DAA259",
"[  c #CAB056",
"{  c #CAB256",
"}  c #CBB257",
"|  c #CCB257",
" . c #CCB357",
".. c #CDB455",
"X. c #CDB45B",
"o. c #CFB65D",
"O. c #C79A62",
"+. c #CD9A62",
"@. c #D79A66",
"#. c #D09C6C",
"$. c #DC9E6A",
"%. c #C9A061",
"&. c #C3AC60",
"*. c #C7AF67",
"=. c #CAAB60",
"-. c #CDAA61",
";. c #CBAF66",
":. c #C7B063",
">. c #C6B066",
",. c #CAB161",
"<. c #CFB761",
"1. c #CEB564",
"2. c #CEB567",
"3. c #C9B36A",
"4. c #CCB468",
"5. c #C9B36C",
"6. c #D5BC66",
"7. c #D3BC68",
"8. c #D0B86F",
"9. c #D1B96F",
"0. c #C1AB77",
"q. c #C2AC74",
"w. c #CDB870",
"e. c #CCB47A",
"r. c #D0B871",
"t. c #D2BD73",
"y. c #D1BA77",
"u. c #D3BE74",
"i. c #DBB57A",
"p. c #D5BE78",
"a. c #E7B26C",
"s. c #EEB16B",
"d. c #E1A874",
"f. c #ECAE72",
"g. c #E7AA79",
"h. c #E9B073",
"j. c #F2B575",
"k. c #DFC56F",
"l. c #D8C072",
"z. c #D8C277",
"x. c #D7C27F",
"c. c #DBC57F",
"v. c #C5B183",
"b. c #DBBD83",
"n. c #FABC84",
"m. c #D7C485",
"M. c #DBC581",
"N. c #D8C385",
"B. c #D8C486",
"V. c #DEC881",
"C. c #DFC885",
"Z. c #DBC88B",
"A. c #DCC88D",
"S. c #DFCB8E",
"D. c #DFCD90",
"F. c #E0C880",
"G. c #E1CB81",
"H. c #E2CC86",
"J. c #E3CD86",
"K. c #E0CD8F",
"L. c #F7C28B",
"P. c #E7D28A",
"I. c #E4D08C",
"U. c #EED689",
"Y. c #EBD38F",
"T. c #E4D196",
"R. c #E5D39E",
"E. c #F7D591",
"W. c #F1DA97",
"Q. c #F4DD96",
"!. c #F6DF9E",
"~. c #F7E099",
"^. c #F8E29B",
"/. c #F8E29D",
"(. c #E6D6A1",
"). c #FAE2A5",
"_. c #F8E3A8",
"`. c #FEE8A9",
"'. c None",
/* pixels */
"'.'.'.'.'.'.D.R.m.(.'.'.'.'.'.'.",
"'.'.'.'.T.N.~ 9.( p.>.Z.'.'.'.'.",
"'.'.'.x.y.r.M.5.p R ` r.A.'.'.'.",
"'.'.) B 2.H.b.%.F D C C.p.3.'.'.",
"'.<.E s 7.i.L.j.s.a.g e.Y.m &.'.",
"'.} v U 1.h.n.f.] ] = * ).2.n '.",
"'.Q H  .` O.d.+.S P A 0 ;.F.K '.",
"'.T W  .M d #.3 - w 7 i -.H.T s ",
"'.K [ } ` $.g.@.G Z % q E.P.L 9 ",
"'.l :. .! 3 4 2 1 r $ 6 `.M.n '.",
"'.5 w.X./ j h k < e m t.!.m.u '.",
"'.o a 6.t.q.V f > z k.W._.l.@ '.",
"'.'.+ U Q.A.v.0.,.o.M.G.~.: '.'.",
"'.'.'.O *.U.^.I.K.z./.^ & '.'.'.",
"'.'.'.'.. # y y x 8 : X '.'.'.'.",
"'.'.'.'.'.'.'.  . '.'.'.'.'.'.'."
};
