/* XPM */
static char *d0eefec4ccde4fcddec2543915430989[] = {
/* columns rows colors chars-per-pixel */
"32 32 256 2 ",
"   c #4C3201",
".  c #503602",
"X  c #543A04",
"o  c #583E06",
"O  c #5B420A",
"+  c #5E4D05",
"@  c #61470D",
"#  c #6E550E",
"$  c #664C11",
"%  c #6A5114",
"&  c #6F5518",
"*  c #645511",
"=  c #765E1B",
"-  c #7A5E1B",
";  c #7B631E",
":  c #785F20",
">  c #7F6923",
",  c #83671E",
"<  c #87681D",
"1  c #836A25",
"2  c #8E7020",
"3  c #8A722E",
"4  c #9B7A2C",
"5  c #967A2B",
"6  c #8C6C3D",
"7  c #83653B",
"8  c #916D39",
"9  c #8E7630",
"0  c #947B33",
"q  c #9C7A38",
"w  c #967837",
"e  c #A07F33",
"r  c #AD7F34",
"t  c #A27A3B",
"y  c #9A6F43",
"u  c #926F49",
"i  c #887044",
"p  c #9B7447",
"a  c #967B47",
"s  c #9D7940",
"d  c #957B48",
"f  c #9D7A4E",
"g  c #9C7C50",
"h  c #957E59",
"j  c #A37640",
"k  c #AB7D43",
"l  c #A47B49",
"z  c #A47C42",
"x  c #A37D52",
"c  c #99803B",
"v  c #9C8232",
"b  c #AC882E",
"n  c #A48534",
"m  c #A18739",
"M  c #A98639",
"N  c #A68C3B",
"B  c #A88F3B",
"V  c #B48C36",
"C  c #BA8F3F",
"Z  c #A9903D",
"A  c #BB913A",
"S  c #CC993F",
"D  c #9A824A",
"F  c #9D8756",
"G  c #9F885C",
"H  c #99825B",
"J  c #A68543",
"K  c #AC8242",
"L  c #A68843",
"P  c #A88D47",
"I  c #A08348",
"U  c #A9854C",
"Y  c #AB8A4A",
"T  c #B48342",
"R  c #BB8F40",
"E  c #B18A4B",
"W  c #BB8F4D",
"Q  c #B3834E",
"!  c #AC9342",
"~  c #AB944C",
"^  c #AF984A",
"/  c #B09642",
"(  c #B49B45",
")  c #BC964E",
"_  c #B39A4B",
"`  c #B89E49",
"'  c #AB8153",
"]  c #A28950",
"[  c #AA8D51",
"{  c #B38354",
"}  c #B38A50",
"|  c #BF8C54",
" . c #BB8C5B",
".. c #B4845A",
"X. c #AC9455",
"o. c #A7955B",
"O. c #AF9159",
"+. c #B39C52",
"@. c #BC995B",
"#. c #B79759",
"$. c #BCA24B",
"%. c #ADA35F",
"&. c #BDA555",
"*. c #BFA857",
"=. c #BCA45A",
"-. c #BFA95E",
";. c #B38E69",
":. c #A69265",
">. c #A89267",
",. c #B69762",
"<. c #B29860",
"1. c #BA9564",
"2. c #B19D71",
"3. c #BDA562",
"4. c #BDA865",
"5. c #BCA569",
"6. c #BDAA6C",
"7. c #BEAC71",
"8. c #BCAC7A",
"9. c #C48D46",
"0. c #CC934D",
"q. c #C49542",
"w. c #D49F4C",
"e. c #CB8D59",
"r. c #D38F5D",
"t. c #C39654",
"y. c #CF9752",
"u. c #CF9951",
"i. c #C3935C",
"p. c #C49C59",
"a. c #D39B52",
"s. c #D89853",
"d. c #D3985A",
"f. c #D99D5C",
"g. c #D2915B",
"h. c #CFA146",
"j. c #C1A74D",
"k. c #C4AA4F",
"l. c #D8A847",
"z. c #D5A249",
"x. c #D9A74C",
"c. c #C2A451",
"v. c #C5AB53",
"b. c #C9AF54",
"n. c #C2A759",
"m. c #C2AB5B",
"M. c #C8AF58",
"N. c #D8A055",
"B. c #DCA35D",
"V. c #CBB156",
"C. c #CDB35B",
"Z. c #C5B25E",
"A. c #D0B65C",
"S. c #D2B95E",
"D. c #E0A65D",
"F. c #E0B458",
"G. c #F2BB51",
"H. c #C99B67",
"J. c #D29A66",
"K. c #D59D6A",
"L. c #D29563",
"P. c #C2AB63",
"I. c #CAAB66",
"U. c #C6A269",
"Y. c #C9A16B",
"T. c #C2AE6C",
"R. c #C8AF69",
"E. c #DEA465",
"W. c #DFA26B",
"Q. c #D8A767",
"!. c #C6B063",
"~. c #CAB263",
"^. c #CFB867",
"/. c #CCB56C",
"(. c #CEB86E",
"). c #D4BB65",
"_. c #D3BB6C",
"`. c #D8BF6C",
"'. c #CFAE78",
"]. c #CEAC73",
"[. c #DBA575",
"{. c #CBB672",
"}. c #CEB871",
"|. c #CDB77B",
" X c #CEB97D",
".X c #D3BC74",
"XX c #D0B97B",
"oX c #DBB27B",
"OX c #E3AC63",
"+X c #EBAD67",
"@X c #E4A768",
"#X c #E0AE6F",
"$X c #E9AB6E",
"%X c #F0AF6F",
"&X c #E4B26D",
"*X c #E9B069",
"=X c #F0B16D",
"-X c #E2A573",
";X c #EDAD7A",
":X c #E8AB72",
">X c #ECB773",
",X c #E1B579",
"<X c #EEB47A",
"1X c #F1B377",
"2X c #F2B67D",
"3X c #F3B87E",
"4X c #DBC16D",
"5X c #D7C074",
"6X c #DCC375",
"7X c #D7C17C",
"8X c #D9C37D",
"9X c #E0C776",
"0X c #E2CA7B",
"qX c #CDBB81",
"wX c #D1BE83",
"eX c #ECBD86",
"rX c #F6BA83",
"tX c #D6C181",
"yX c #DAC583",
"uX c #DFC884",
"iX c #DAC788",
"pX c #DDC98A",
"aX c #DECB91",
"sX c #E5CD83",
"dX c #E8CF83",
"fX c #E3CD8C",
"gX c #EBCB8E",
"hX c #FCC086",
"jX c #F7C58B",
"kX c #E9D084",
"lX c #E7D28F",
"zX c #ECD38B",
"xX c #E0CF94",
"cX c #FAC590",
"vX c #E5D296",
"bX c #EDD694",
"nX c #EFD893",
"mX c #E6D398",
"MX c #EDD79E",
"NX c #ECD89D",
"BX c #F1DA93",
"VX c #FFD099",
"CX c #F4DD9C",
"ZX c #F7E09E",
"AX c #F9E19F",
"SX c #EEDCA4",
"DX c #ECDCAA",
"FX c #F1DFAA",
"GX c #F7E2A2",
"HX c #FBE4A3",
"JX c #F5E2AB",
"KX c #F0E0B2",
"LX c #F2E4B9",
"PX c #F6E9C0",
"IX c #F8EDCA",
"UX c None",
/* pixels */
"UXUXUXUXUXUXUXUXUXUXUXUXUXUXUXUXUXUXUXUXUXUXUXUXUXUXUXUXUXUXUXUX",
"UXUXUXUXUXUXUXUXUXUXUXLXiX7XvXpX.X!.pXDXDXUXUXUXUXUXUXUXUXUXUXUX",
"UXUXUXUXUXUXUXUXUXmXSX7Xm.b.}.}.(.R.7XuX!.m.xXIXUXUXUXUXUXUXUXUX",
"UXUXUXUXUXUXUXPXSXR.XXtX*.$.}./.+.^ P.pX.X$.-.NXKXUXUXUXUXUXUXUX",
"UXUXUXUXUXUXaXfX7X.XfXI.@./..X).b.j.$.&.&.! _.pXwXaXUXUXUXUXUXUX",
"UXUXUXUXUXyXZ.P.aX=.=.uXHXGXyX4.+.+.M.4X6X~._ uXmX{..XUXUXUXUXUX",
"UXUXUXUX8Xm.+.8X}.*.kXZXpX5.O.[ L K L X.4.yXnX/.7XpXT.(.UXUXUXUX",
"UXUXUXUXZ.^ !.n.c.0XkX|.].,X#XOXOXOXD.t.Y ] |.HX(.(..Xn.}.UXUXUX",
"UXUXUX^.b.M.` ( ).6X{.oXVXjX<X=X*X*X>X&X@.#.<.bXHXP.C.m.P.UXUXUX",
"UXUXUXC.V.b.B V.)._.U.hXcXjX3X%X+X&X&XOXp.,.1. XHXbX+.m.=.m.UXUX",
"UXUXC.b.V.( ` A.)./.Q.1X2XrX;X@XB.B.N.D.) 1 ; X.CXHX}.` =.*.UXUX",
"UXUXb.b.b./ b.b.).I.E.2X2X2X:XE.N.u.0.u.t.= * :.mXHXgX` m.*.b.UX",
"UXUXb.b.k.` C.b.S.P.Q.3XrXrX2X$XOXa.0.z.x.V n ) c.zXZXn.b.C.k.UX",
"UXUXb.V.j.&.V.b.).=.U  .K.K.i.} E W z.G.R h.l.L b n.HX~.j.M.j.UX",
"UX/ b.V.j.v.M.V.Z.o.l g 1.H.p 7 8 8 R q.f M A ;.].n GX.Xk.V.$.UX",
"UXN b.b.k.b.V.V.%.:.| ' [.-X .l z k T < q e V e.z.dXCX6Xk.C.$.UX",
"UX5 b.V.v.V.V.b.m.I.:X-XrX;XW.W.d.y.s.r 2 4 4 S F.CXCX.Xv.V.( UX",
"UX1 k.V.b.V.V.b.A.Q.r.K.;X-XL.e.f.y.0.9.} q < g.gXZXCX`.b.A.B UX",
"UXUX` m.-.V.V.b.S.@.y x x u ..{ k T T E @.5 - eXZXCXCX).v.b.5 UX",
"UXUXm T.6.C.V.b.C.@.6 x g x ' p 8 k t } J # + R.AXZXnX/.5.*.- UX",
"UXUX; /.8.Z.^.b.).3.l @..... .Q z W L [ Y ! ^ m.ZXGXfX6.qX! X UX",
"UXUXo _ .X~.^.C.C.5.,.i.g x J.i.s K I [ _.kXBXZXCXGXiX7._.; UXUX",
"UXUXUX; S.k.V..XC./.8.'.Y.Y.Y.1.d d D n.).6XsXbXGXFX0X5XZ o UXUX",
"UXUXUX  v S.k.).xX5X{.2.:.:.:.G i D c.C.).9XkXCXJXCXsXC.% UXUXUX",
"UXUXUXUXO ( A.b.sXFXlXXX:.H h F #.C.V.b.S.6XvXfXzXZXzX1   UXUXUX",
"UXUXUXUXUX@ ( S.9XCXfXSXJXMXbXkX4XV.b.^.fXSX.XA.BXHXc   UXUXUXUX",
"UXUXUXUXUX. O Z 0XGX4X6XJXvXmXSXSXmXiXiXCXbXC.).dXw   UXUXUXUXUX",
"UXUXUXUXUXUX. o 0 lXkX9XCX).&.T.tXT.*.V.zXHX).! &   UXUXUXUXUXUX",
"UXUXUXUXUXUXUXUX  % 0 m.ZX9X}./.yX.X/.S.0XP.: .   UXUXUXUXUXUXUX",
"UXUXUXUXUXUXUXUXUX    O : 3 0 ~ 3.+.9 = $ X   UXUXUXUXUXUXUXUXUX",
"UXUXUXUXUXUXUXUXUXUXUXUX      . .       . UXUXUXUXUXUXUXUXUXUXUX",
"UXUXUXUXUXUXUXUXUXUXUXUXUXUXUXUXUXUXUXUXUXUXUXUXUXUXUXUXUXUXUXUX"
};
